<svg width="16" height="16" viewBox="0 0 16 16" fill="none" xmlns="http://www.w3.org/2000/svg">
<path d="M14.6667 0H4C3.64638 0 3.30724 0.140476 3.05719 0.390524C2.80714 0.640573 2.66667 0.979711 2.66667 1.33333V2.66667H1.33333C0.979711 2.66667 0.640573 2.80714 0.390524 3.05719C0.140476 3.30724 0 3.64638 0 4V14.6667C0 15.0203 0.140476 15.3594 0.390524 15.6095C0.640573 15.8595 0.979711 16 1.33333 16H12C12.3536 16 12.6928 15.8595 12.9428 15.6095C13.1929 15.3594 13.3333 15.0203 13.3333 14.6667V13.3333H14.6667C15.0203 13.3333 15.3594 13.1929 15.6095 12.9428C15.8595 12.6928 16 12.3536 16 12V1.33333C16 0.979711 15.8595 0.640573 15.6095 0.390524C15.3594 0.140476 15.0203 0 14.6667 0ZM4 1.33333H14.6667V7.115L13.275 5.72333C13.025 5.47347 12.686 5.33312 12.3325 5.33312C11.979 5.33312 11.64 5.47347 11.39 5.72333L5.11417 12H4V1.33333ZM12 14.6667H1.33333V4H2.66667V12C2.66667 12.3536 2.80714 12.6928 3.05719 12.9428C3.30724 13.1929 3.64638 13.3333 4 13.3333H12V14.6667ZM14.6667 12H7L12.3333 6.66667L14.6667 9V12ZM7.33333 6.66667C7.7289 6.66667 8.11557 6.54937 8.44447 6.32961C8.77337 6.10984 9.02972 5.79749 9.18109 5.43203C9.33247 5.06658 9.37208 4.66445 9.2949 4.27649C9.21773 3.88852 9.02725 3.53216 8.74755 3.25245C8.46784 2.97275 8.11148 2.78227 7.72351 2.7051C7.33555 2.62793 6.93342 2.66753 6.56797 2.81891C6.20251 2.97028 5.89016 3.22663 5.67039 3.55553C5.45063 3.88442 5.33333 4.2711 5.33333 4.66667C5.33333 5.1971 5.54405 5.70581 5.91912 6.08088C6.29419 6.45595 6.8029 6.66667 7.33333 6.66667ZM7.33333 4C7.46519 4 7.59408 4.0391 7.70371 4.11235C7.81335 4.18561 7.8988 4.28973 7.94925 4.41154C7.99971 4.53336 8.01291 4.66741 7.98719 4.79673C7.96147 4.92605 7.89797 5.04484 7.80474 5.13807C7.7115 5.23131 7.59271 5.2948 7.46339 5.32052C7.33407 5.34625 7.20003 5.33305 7.07821 5.28259C6.95639 5.23213 6.85227 5.14668 6.77902 5.03705C6.70577 4.92741 6.66667 4.79852 6.66667 4.66667C6.66667 4.48986 6.73691 4.32029 6.86193 4.19526C6.98695 4.07024 7.15652 4 7.33333 4Z" fill="#43413D"/>
</svg>
