<svg width="16" height="16" viewBox="0 0 16 16" fill="none" xmlns="http://www.w3.org/2000/svg">
  <path id="Vector"
    d="M8 0.5C6.51664 0.5 5.06659 0.939867 3.83323 1.76398C2.59986 2.58809 1.63856 3.75943 1.07091 5.12987C0.50325 6.50032 0.354725 8.00832 0.644114 9.46318C0.933503 10.918 1.64781 12.2544 2.6967 13.3033C3.7456 14.3522 5.08197 15.0665 6.53682 15.3559C7.99168 15.6453 9.49968 15.4967 10.8701 14.9291C12.2406 14.3614 13.4119 13.4001 14.236 12.1668C15.0601 10.9334 15.5 9.48336 15.5 8C15.4979 6.01152 14.707 4.10509 13.301 2.69902C11.8949 1.29295 9.98848 0.5021 8 0.5ZM11.2928 6.6774L7.25433 10.7159C7.20075 10.7695 7.13712 10.8121 7.06708 10.8411C6.99705 10.8701 6.92197 10.8851 6.84616 10.8851C6.77034 10.8851 6.69527 10.8701 6.62523 10.8411C6.55519 10.8121 6.49156 10.7695 6.43798 10.7159L4.70721 8.9851C4.59896 8.87684 4.53814 8.73002 4.53814 8.57692C4.53814 8.42383 4.59896 8.277 4.70721 8.16875C4.81547 8.06049 4.96229 7.99968 5.11539 7.99968C5.26848 7.99968 5.41531 8.06049 5.52356 8.16875L6.84616 9.49207L10.4764 5.86106C10.53 5.80745 10.5937 5.76494 10.6637 5.73593C10.7337 5.70692 10.8088 5.69199 10.8846 5.69199C10.9604 5.69199 11.0355 5.70692 11.1055 5.73593C11.1756 5.76494 11.2392 5.80745 11.2928 5.86106C11.3464 5.91466 11.3889 5.97829 11.4179 6.04833C11.4469 6.11836 11.4619 6.19342 11.4619 6.26923C11.4619 6.34503 11.4469 6.4201 11.4179 6.49013C11.3889 6.56017 11.3464 6.6238 11.2928 6.6774Z"
    fill="#43413D" />
</svg>