<svg width="38" height="36" viewBox="0 0 38 36" fill="none" xmlns="http://www.w3.org/2000/svg">
<path d="M7.0648 14.9366C14.7493 7.09835 30.7979 6.9148 37.4109 0.286987C34.3946 6.88504 29.4287 10.571 25.326 13.0713H25.2913C24.1155 13.7907 22.9249 14.4902 21.6648 15.2343C13.266 20.1952 3.80547 25.7614 0.000427924 35.5741C-0.0392596 27.7011 2.6843 19.4263 7.0648 14.9366Z" fill="#43413D"/>
<path d="M22.2006 16.1421C23.4061 15.4327 24.5472 14.758 25.6733 14.0734C26.6671 14.251 27.6751 14.3373 28.6846 14.3314C31.3897 14.3134 34.0727 13.8422 36.6221 12.9374C34.6377 16.1918 31.5619 18.8508 27.0524 21.2221H27.0177C24.6861 22.4475 22.1411 23.6728 19.4473 24.9726C12.5714 28.3014 5.50707 31.7195 1.15137 35.5146C4.95145 26.317 14.0945 20.9294 22.2006 16.1421Z" fill="#43413D"/>
<path d="M2.51071 35.713C6.792 32.2404 13.4248 29.0307 19.874 25.9201C22.3098 24.7444 24.6117 23.6332 26.7647 22.5169H26.8392H26.9086C28.5281 22.8079 30.1696 22.959 31.815 22.9684C33.542 23.0073 35.264 22.7678 36.9148 22.259C34.2359 27.7805 25.8073 29.6408 16.9173 31.6004C11.9018 32.7117 6.75231 33.8477 2.51071 35.713Z" fill="#43413D"/>
</svg>
