<svg width="24" height="14" viewBox="0 0 24 14" fill="none" xmlns="http://www.w3.org/2000/svg">
<path d="M19.5 6.99894C19.5031 8.1899 19.1168 9.34923 18.4001 10.3002C18.3606 10.3527 18.3111 10.397 18.2546 10.4304C18.198 10.4638 18.1354 10.4858 18.0703 10.495C18.0053 10.5043 17.939 10.5006 17.8754 10.4842C17.8118 10.4678 17.752 10.4391 17.6995 10.3996C17.6469 10.3601 17.6027 10.3107 17.5693 10.2541C17.5359 10.1975 17.5139 10.1349 17.5047 10.0698C17.4955 10.0047 17.4991 9.93848 17.5155 9.87483C17.5319 9.81118 17.5606 9.75138 17.6001 9.69884C18.1868 8.92134 18.5029 7.97307 18.5 6.99894C18.5 5.80524 18.026 4.66042 17.1821 3.81635C16.3382 2.97227 15.1937 2.49807 14.0003 2.49807C12.8069 2.49807 11.6624 2.97227 10.8185 3.81635C9.97468 4.66042 9.50061 5.80524 9.50061 6.99894C9.50061 7.13157 9.44793 7.25878 9.35417 7.35256C9.26041 7.44635 9.13324 7.49904 9.00064 7.49904C8.86804 7.49904 8.74087 7.44635 8.64711 7.35256C8.55334 7.25878 8.50067 7.13157 8.50067 6.99894C8.50042 6.49427 8.56961 5.99196 8.70628 5.50615C8.63816 5.49865 8.56941 5.49865 8.50067 5.49865C7.70507 5.49865 6.94206 5.81478 6.37948 6.3775C5.81691 6.94022 5.50086 7.70343 5.50086 8.49923C5.50086 9.29503 5.81691 10.0582 6.37948 10.621C6.94206 11.1837 7.70507 11.4998 8.50067 11.4998H10.0006C10.1332 11.4998 10.2603 11.5525 10.3541 11.6463C10.4479 11.7401 10.5005 11.8673 10.5005 11.9999C10.5005 12.1325 10.4479 12.2597 10.3541 12.3535C10.2603 12.4473 10.1332 12.5 10.0006 12.5H8.50067C7.95081 12.5001 7.40684 12.3869 6.90271 12.1672C6.39859 11.9476 5.94515 11.6264 5.57071 11.2237C5.19627 10.8209 4.90888 10.3452 4.72648 9.82638C4.54408 9.30752 4.47059 8.75662 4.51061 8.20808C4.55062 7.65955 4.70328 7.12515 4.95904 6.63828C5.21481 6.1514 5.56818 5.72251 5.99711 5.37837C6.42603 5.03424 6.92128 4.78226 7.45194 4.63818C7.98259 4.4941 8.53724 4.46101 9.08126 4.54097C9.63522 3.43273 10.547 2.544 11.6689 2.01875C12.7908 1.4935 14.0572 1.36248 15.2628 1.64691C16.4685 1.93135 17.5428 2.61458 18.3118 3.58594C19.0809 4.5573 19.4995 5.7599 19.5 6.99894ZM13.8541 6.64512C13.8077 6.59863 13.7525 6.56174 13.6918 6.53657C13.6311 6.5114 13.5661 6.49845 13.5004 6.49845C13.4347 6.49845 13.3696 6.5114 13.3089 6.53657C13.2482 6.56174 13.1931 6.59863 13.1466 6.64512L11.1468 8.64551C11.1003 8.69197 11.0635 8.74713 11.0383 8.80784C11.0132 8.86855 11.0002 8.93362 11.0002 8.99933C11.0002 9.06504 11.0132 9.1301 11.0383 9.19081C11.0635 9.25152 11.1003 9.30668 11.1468 9.35314C11.2406 9.44698 11.3678 9.4997 11.5005 9.4997C11.5662 9.4997 11.6312 9.48676 11.6919 9.46161C11.7526 9.43647 11.8078 9.39961 11.8542 9.35314L13.0004 8.20605V11.9999C13.0004 12.1325 13.0531 12.2597 13.1468 12.3535C13.2406 12.4473 13.3678 12.5 13.5004 12.5C13.633 12.5 13.7601 12.4473 13.8539 12.3535C13.9477 12.2597 14.0003 12.1325 14.0003 11.9999V8.20605L15.1465 9.35314C15.193 9.39961 15.2481 9.43647 15.3088 9.46161C15.3695 9.48676 15.4345 9.4997 15.5002 9.4997C15.5659 9.4997 15.631 9.48676 15.6917 9.46161C15.7524 9.43647 15.8075 9.39961 15.854 9.35314C15.9004 9.30668 15.9373 9.25152 15.9624 9.19081C15.9875 9.1301 16.0005 9.06504 16.0005 8.99933C16.0005 8.93362 15.9875 8.86855 15.9624 8.80784C15.9373 8.74713 15.9004 8.69197 15.854 8.64551L13.8541 6.64512Z" fill="#43413D"/>
</svg>
